name kv04_filtered_grf.mot
datacolumns 37
datarows 15
range 1.193500 1.200500
endheader
time	1_ground_force_vx	1_ground_force_vy	1_ground_force_vz	1_ground_force_px	1_ground_force_py	1_ground_force_pz	1_ground_torque_x	1_ground_torque_y	1_ground_torque_z	2_ground_force_vx	2_ground_force_vy	2_ground_force_vz	2_ground_force_px	2_ground_force_py	2_ground_force_pz	2_ground_torque_x	2_ground_torque_y	2_ground_torque_z	3_ground_force_vx	3_ground_force_vy	3_ground_force_vz	3_ground_force_px	3_ground_force_py	3_ground_force_pz	3_ground_torque_x	3_ground_torque_y	3_ground_torque_z	4_ground_force_vx	4_ground_force_vy	4_ground_force_vz	4_ground_force_px	4_ground_force_py	4_ground_force_pz	4_ground_torque_x	4_ground_torque_y	4_ground_torque_z
            1.193500	          -71.607698	          856.533096	          125.293832	            0.150988	            0.000000	            0.199913	           -1.427170	           17.071045	            2.497156	           89.005010	          922.463187	          152.399092	           -0.209697	            0.000000	            0.196742	            3.022166	           31.322251	            5.174713	            0.290308	            0.274581	           -0.081442	            0.386796	            0.970245	            1.075033	           -0.000164	            0.005597	            0.001336	            0.594387	           -0.026042	            0.085933	           -0.369135	            0.969615	            1.108101	            0.000521	           -0.003319	            0.001293
            1.194000	          -71.034349	          857.626105	          124.329643	            0.150935	            0.000000	            0.199891	           -1.424312	           17.196285	            2.492937	           88.391122	          924.553177	          151.898592	           -0.209484	            0.000000	            0.196599	            2.982732	           31.198776	            5.125773	            0.305706	            0.262176	           -0.082342	            0.386789	            0.970252	            1.075035	            0.000046	            0.005824	            0.001597	            0.596377	           -0.032589	            0.081568	           -0.369134	            0.969622	            1.108107	            0.000216	           -0.003009	            0.000366
            1.194500	          -70.465515	          858.726093	          123.377874	            0.150882	            0.000000	            0.199870	           -1.421323	           17.320910	            2.488590	           87.782803	          926.623712	          151.411400	           -0.209275	            0.000000	            0.196456	            2.944038	           31.076878	            5.077998	            0.320636	            0.249511	           -0.083466	            0.386783	            0.970258	            1.075037	            0.000252	            0.006050	            0.001863	            0.597482	           -0.038567	            0.076839	           -0.369133	            0.969630	            1.108112	           -0.000100	           -0.002690	           -0.000582
            1.195000	          -69.901179	          859.830144	          122.439427	            0.150830	            0.000000	            0.199847	           -1.418202	           17.444810	            2.484133	           87.180354	          928.672222	          150.937907	           -0.209067	            0.000000	            0.196313	            2.906098	           30.956659	            5.031413	            0.335070	            0.236626	           -0.084826	            0.386776	            0.970265	            1.075038	            0.000451	            0.006273	            0.002134	            0.597687	           -0.043987	            0.071763	           -0.369132	            0.969637	            1.108118	           -0.000424	           -0.002362	           -0.001552
            1.195500	          -69.341308	          860.935357	          121.515195	            0.150778	            0.000000	            0.199824	           -1.414949	           17.567876	            2.479587	           86.584042	          930.696162	          150.478493	           -0.208863	            0.000000	            0.196170	            2.868925	           30.838213	            4.986039	            0.348980	            0.223563	           -0.086429	            0.386771	            0.970272	            1.075040	            0.000645	            0.006494	            0.002412	            0.596976	           -0.048860	            0.066354	           -0.369130	            0.969644	            1.108123	           -0.000758	           -0.002026	           -0.002540
            1.196000	          -68.785851	          862.038851	          120.606065	            0.150726	            0.000000	            0.199801	           -1.411563	           17.690003	            2.474972	           85.994098	          932.693019	          150.033518	           -0.208661	            0.000000	            0.196028	            2.832528	           30.721629	            4.941898	            0.362340	            0.210363	           -0.088285	            0.386765	            0.970279	            1.075042	            0.000833	            0.006709	            0.002695	            0.595339	           -0.053202	            0.060633	           -0.369129	            0.969652	            1.108128	           -0.001100	           -0.001683	           -0.003546
            1.196500	          -68.234747	          863.137771	          119.712913	            0.150675	            0.000000	            0.199776	           -1.408043	           17.811092	            2.470310	           85.410722	          934.660315	          149.603327	           -0.208463	            0.000000	            0.195886	            2.796915	           30.606989	            4.899007	            0.375125	            0.197069	           -0.090403	            0.386760	            0.970286	            1.075044	            0.001015	            0.006919	            0.002986	            0.592766	           -0.057026	            0.054617	           -0.369127	            0.969659	            1.108133	           -0.001449	           -0.001333	           -0.004568
            1.197000	          -67.687918	          864.229300	          118.836604	            0.150624	            0.000000	            0.199751	           -1.404390	           17.931046	            2.465624	           84.834082	          936.595612	          149.188240	           -0.208267	            0.000000	            0.195744	            2.762091	           30.494370	            4.857381	            0.387311	            0.183723	           -0.092792	            0.386755	            0.970292	            1.075047	            0.001190	            0.007123	            0.003283	            0.589252	           -0.060349	            0.048328	           -0.369125	            0.969666	            1.108138	           -0.001804	           -0.000978	           -0.005603
            1.197500	          -67.145273	          865.310658	          117.977989	            0.150573	            0.000000	            0.199724	           -1.400603	           18.049773	            2.460938	           84.264317	          938.496517	          148.788560	           -0.208074	            0.000000	            0.195602	            2.728059	           30.383840	            4.817032	            0.398875	            0.170367	           -0.095459	            0.386749	            0.970299	            1.075049	            0.001358	            0.007320	            0.003588	            0.584792	           -0.063188	            0.041785	           -0.369123	            0.969673	            1.108143	           -0.002165	           -0.000618	           -0.006650
            1.198000	          -66.606711	          866.379117	          117.137906	            0.150522	            0.000000	            0.199696	           -1.396683	           18.167189	            2.456276	           83.701538	          940.360684	          148.404562	           -0.207884	            0.000000	            0.195460	            2.694820	           30.275463	            4.777972	            0.409794	            0.157044	           -0.098411	            0.386745	            0.970306	            1.075051	            0.001519	            0.007508	            0.003900	            0.579388	           -0.065561	            0.035005	           -0.369121	            0.969679	            1.108148	           -0.002530	           -0.000255	           -0.007707
            1.198500	          -66.072119	          867.432000	          116.317177	            0.150470	            0.000000	            0.199667	           -1.392628	           18.283209	            2.451663	           83.145830	          942.185821	          148.036495	           -0.207697	            0.000000	            0.195318	            2.662374	           30.169295	            4.740208	            0.420046	            0.143795	           -0.101655	            0.386741	            0.970313	            1.075053	            0.001674	            0.007688	            0.004221	            0.573043	           -0.067486	            0.028014	           -0.369119	            0.969685	            1.108153	           -0.002898	            0.000112	           -0.008772
            1.199000	          -65.541375	          868.466691	          115.516607	            0.150419	            0.000000	            0.199636	           -1.388440	           18.397758	            2.447125	           82.597249	          943.969693	          147.684580	           -0.207513	            0.000000	            0.195177	            2.630718	           30.065386	            4.703746	            0.429612	            0.130660	           -0.105198	            0.386736	            0.970320	            1.075056	            0.001822	            0.007858	            0.004549	            0.565763	           -0.068982	            0.020834	           -0.369116	            0.969692	            1.108157	           -0.003268	            0.000480	           -0.009842
            1.199500	          -65.014346	          869.480639	          114.736983	            0.150368	            0.000000	            0.199604	           -1.384119	           18.510762	            2.442687	           82.055830	          945.710121	          147.349011	           -0.207331	            0.000000	            0.195036	            2.599848	           29.963779	            4.668590	            0.438471	            0.117679	           -0.109045	            0.386732	            0.970327	            1.075058	            0.001963	            0.008018	            0.004886	            0.557558	           -0.070070	            0.013486	           -0.369114	            0.969698	            1.108162	           -0.003640	            0.000850	           -0.010915
            1.200000	          -64.490895	          870.471367	          113.979071	            0.150316	            0.000000	            0.199570	           -1.379666	           18.622154	            2.438375	           81.521583	          947.404992	          147.029948	           -0.207153	            0.000000	            0.194894	            2.569759	           29.864509	            4.634741	            0.446606	            0.104889	           -0.113202	            0.386728	            0.970333	            1.075060	            0.002097	            0.008167	            0.005232	            0.548442	           -0.070768	            0.005992	           -0.369111	            0.969704	            1.108167	           -0.004011	            0.001220	           -0.011989
            1.200500	          -63.970877	          871.436470	          113.243615	            0.150264	            0.000000	            0.199534	           -1.375079	           18.731870	            2.434216	           80.994495	          949.052258	          146.727517	           -0.206978	            0.000000	            0.194753	            2.540442	           29.767606	            4.602198	            0.453996	            0.092328	           -0.117670	            0.386725	            0.970340	            1.075063	            0.002224	            0.008306	            0.005585	            0.538433	           -0.071096	           -0.001629	           -0.369108	            0.969710	            1.108171	           -0.004380	            0.001589	           -0.013062
